<?xml version="1.0" encoding="iso-8859-1"?>
<!-- Generator: Adobe Illustrator 16.0.0, SVG Export Plug-In . SVG Version: 6.00 Build 0)  -->
<!DOCTYPE svg PUBLIC "-//W3C//DTD SVG 1.1//EN" "http://www.w3.org/Graphics/SVG/1.1/DTD/svg11.dtd">
<svg version="1.1" id="Capa_1" xmlns="http://www.w3.org/2000/svg" xmlns:xlink="http://www.w3.org/1999/xlink" x="0px" y="0px"
	 width="27.843px" height="27.408px" viewBox="0 0 27.843 27.408" style="enable-background:new 0 0 27.843 27.408;"
	 xml:space="preserve">
<path style="fill:#6AC8FC;" d="M0,27.408h27.843V8.391H0V27.408z M8.526,18.699c0.854,0,2.217,0,2.217,0s0-0.372,0-0.938
	c0-1.752,0-5.16,0-6.462c0,0-0.01-0.305,0.385-0.305c0.396,0,4.893,0,5.445,0s0.459,0.365,0.459,0.365c0,1.34,0,4.636,0,6.448
	c0,0.633,0,1.045,0,1.045s1.695,0,2.399,0c0.702,0,0.057,0.612,0.057,0.612l-5.292,5.148c0,0-0.352,0.409-0.718,0.043
	c-0.505-0.505-5.162-5.316-5.162-5.316S7.67,18.699,8.526,18.699z"/>
<polygon style="fill:#6AC8FC;" points="13.098,0 2.362,0 0.25,7.272 12.603,7.272 "/>
<polygon style="fill:#6AC8FC;" points="27.843,7.272 25.321,0 14.743,0 15.377,7.272 "/>
<g>
</g>
<g>
</g>
<g>
</g>
<g>
</g>
<g>
</g>
<g>
</g>
<g>
</g>
<g>
</g>
<g>
</g>
<g>
</g>
<g>
</g>
<g>
</g>
<g>
</g>
<g>
</g>
<g>
</g>
</svg>
