<?xml version="1.0" encoding="utf-8"?>

<!-- License Agreement at http://iconmonstr.com/license/ -->

<!DOCTYPE svg PUBLIC "-//W3C//DTD SVG 1.1//EN" "http://www.w3.org/Graphics/SVG/1.1/DTD/svg11.dtd">
<svg version="1.1" xmlns="http://www.w3.org/2000/svg" xmlns:xlink="http://www.w3.org/1999/xlink" x="0px" y="0px"
	 width="512px" height="512px" viewBox="0 0 512 512" style="enable-background:new 0 0 512 512;" xml:space="preserve">
<path fill="#6AC8FC" id="disk-17-icon" d="M376.166,84.334H135.833L50,324.666v103h412v-103L376.166,84.334z M190.016,175.708l22.246,23.21
	c-13.059,16.965-9.337,35.842,3.051,48.75c17.837,18.617,50.175,21.752,72.456,7.218c23.554-15.365,25.515-43.722,7.728-62.271
	c-7.61-7.946-18.859-14.099-33.596-16.639l-3.47,25.523l-42.296-44.132l53.059-34.769l-3.387,25.624
	c22.984,3.227,42.397,13.822,56.01,28.038c30.611,31.911,24.861,76.638-12.557,101.047c-36.932,24.073-91.147,18.792-120.803-12.12
	C164.266,239.965,162.086,203.033,190.016,175.708z M427.666,393.334H84.333v-51.5h343.333V393.334z M376.166,367.584
	c0-4.745,3.84-8.584,8.584-8.584s8.584,3.839,8.584,8.584c0,4.744-3.84,8.582-8.584,8.582S376.166,372.328,376.166,367.584z"/>
</svg>
