<?xml version="1.0" encoding="utf-8"?>
<!-- Generator: Adobe Illustrator 16.0.0, SVG Export Plug-In . SVG Version: 6.00 Build 0)  -->
<!DOCTYPE svg PUBLIC "-//W3C//DTD SVG 1.1//EN" "http://www.w3.org/Graphics/SVG/1.1/DTD/svg11.dtd">
<svg version="1.1" id="Capa_1" xmlns="http://www.w3.org/2000/svg" xmlns:xlink="http://www.w3.org/1999/xlink" x="0px" y="0px"
	 width="30.049px" height="30.051px" viewBox="0 0 30.049 30.051" enable-background="new 0 0 30.049 30.051" xml:space="preserve">
<g>
	<path d="M15.053,0.537c-8.001,0-14.488,6.488-14.488,14.49c0,8.003,6.486,14.487,14.488,14.487
		c8.003,0.002,14.49-6.483,14.49-14.487C29.543,7.025,23.057,0.537,15.053,0.537z M15.054,27.095
		c-6.664,0-12.066-5.401-12.066-12.068c0-6.664,5.404-12.071,12.066-12.071c6.667,0,12.069,5.408,12.069,12.071
		C27.123,21.693,21.722,27.095,15.054,27.095z"/>
	<path d="M15.389,8.539C15.3,8.432,15.167,8.37,15.028,8.371c-0.139,0.001-0.271,0.066-0.357,0.176l-3.742,4.761
		c-0.109,0.138-0.129,0.327-0.053,0.485c0.077,0.158,0.237,0.26,0.414,0.26c0.775,0,1.566,0,1.566,0s0,6.358,0,7.681
		c0,0-0.011,0.308,0.392,0.308c0.398,0,3.098,0,3.662,0c0.559,0,0.463-0.371,0.463-0.371c0-1.361,0-7.615,0-7.615s0.732,0,1.57,0
		c0.179,0,0.341-0.102,0.417-0.263c0.075-0.161,0.052-0.351-0.062-0.488L15.389,8.539z"/>
</g>
</svg>
