<?xml version="1.0" encoding="iso-8859-1"?>
<!-- Generator: Adobe Illustrator 16.0.0, SVG Export Plug-In . SVG Version: 6.00 Build 0)  -->
<!DOCTYPE svg PUBLIC "-//W3C//DTD SVG 1.1//EN" "http://www.w3.org/Graphics/SVG/1.1/DTD/svg11.dtd">
<svg version="1.1" id="Capa_1" xmlns="http://www.w3.org/2000/svg" xmlns:xlink="http://www.w3.org/1999/xlink" x="0px" y="0px"
	 width="27.845px" height="27.408px" viewBox="0 0 27.845 27.408" style="enable-background:new 0 0 27.845 27.408;"
	 xml:space="preserve">
<path style="fill:#6AC8FC;" d="M0,27.408h27.845V8.391H0V27.408z M8.241,17.212c0,0,4.72-4.875,5.232-5.387
	c0.372-0.371,0.726,0.044,0.726,0.044l5.366,5.217c0,0,0.655,0.621-0.058,0.621c-0.71,0-2.434,0-2.434,0s0,0.418,0,1.058
	c0,1.837,0,5.178,0,6.536c0,0,0.098,0.37-0.463,0.37c-0.562,0-5.116,0-5.517,0c-0.402,0-0.392-0.309-0.392-0.309
	c0-1.322,0-4.775,0-6.55c0-0.574,0-0.952,0-0.952s-1.382,0-2.249,0C7.589,17.86,8.241,17.212,8.241,17.212z"/>
<polygon style="fill:#6AC8FC;" points="13.099,0 2.363,0 0.25,7.272 12.602,7.272 "/>
<polygon style="fill:#6AC8FC;" points="27.845,7.272 25.322,0 14.747,0 15.378,7.272 "/>
<g>
</g>
<g>
</g>
<g>
</g>
<g>
</g>
<g>
</g>
<g>
</g>
<g>
</g>
<g>
</g>
<g>
</g>
<g>
</g>
<g>
</g>
<g>
</g>
<g>
</g>
<g>
</g>
<g>
</g>
</svg>
